HIERARCHY
ROOT Hips
{
	OFFSET 0.000000 0.000000 0.000000
	CHANNELS 6 Xposition Yposition Zposition Xrotation Yrotation Zrotation
	JOINT LeftUpLeg_virtual
	{
		OFFSET 0.000000 0.000000 0.000000
		CHANNELS 3 Xrotation Yrotation Zrotation
		JOINT LeftUpLeg
		{
			OFFSET 10.205400 -3.823500 0.155100
			CHANNELS 3 Xrotation Yrotation Zrotation
			JOINT LeftLeg
			{
				OFFSET 0.708757 -12.982077 0.567790
				CHANNELS 3 Xrotation Yrotation Zrotation
				JOINT LeftFoot
				{
					OFFSET -0.708756 -10.717838 -2.184338
					CHANNELS 3 Xrotation Yrotation Zrotation
					JOINT LeftToeBase
					{
						OFFSET 0.108149 -7.191104 7.560241
						CHANNELS 3 Xrotation Yrotation Zrotation
						JOINT LeftToe_End
						{
							OFFSET 0.070230 0.081724 4.490308
							CHANNELS 3 Xrotation Yrotation Zrotation
							End Site
							{
								OFFSET 0 0 0
							}
						}
					}
				}
			}
		}
	}
	JOINT RightUpLeg_virtual
	{
		OFFSET 0.000000 0.000000 0.000000
		CHANNELS 3 Xrotation Yrotation Zrotation
		JOINT RightUpLeg
		{
			OFFSET -10.205400 -3.823500 0.005500
			CHANNELS 3 Xrotation Yrotation Zrotation
			JOINT RightLeg
			{
				OFFSET -0.708756 -12.982134 0.610632
				CHANNELS 3 Xrotation Yrotation Zrotation
				JOINT RightFoot
				{
					OFFSET 0.708754 -10.717769 -1.945823
					CHANNELS 3 Xrotation Yrotation Zrotation
					JOINT RightToeBase
					{
						OFFSET -0.108140 -7.191069 7.372968
						CHANNELS 3 Xrotation Yrotation Zrotation
						JOINT RightToe_End
						{
							OFFSET -0.070227 0.081735 4.479403
							CHANNELS 3 Xrotation Yrotation Zrotation
							End Site
							{
								OFFSET 0 0 0
							}
						}
					}
				}
			}
		}
	}
	JOINT Spine_virtual
	{
		OFFSET 0.000000 0.000000 0.000000
		CHANNELS 3 Xrotation Yrotation Zrotation
		JOINT Spine
		{
			OFFSET 0.000000 6.876099 0.125700
			CHANNELS 3 Xrotation Yrotation Zrotation
			JOINT Spine1
			{
				OFFSET 0.000000 5.730043 0.104720
				CHANNELS 3 Xrotation Yrotation Zrotation
				JOINT Spine1_split
				{
					OFFSET 0.000000 5.730043 0.104720
					CHANNELS 3 Xrotation Yrotation Zrotation
					JOINT Spine2
					{
						OFFSET 0.000000 5.730043 0.104720
						CHANNELS 3 Xrotation Yrotation Zrotation
						JOINT Neck_virtual
						{
							OFFSET 0.000000 0.000000 0.000000
							CHANNELS 3 Xrotation Yrotation Zrotation
							JOINT Neck
							{
								OFFSET 0.000000 10.314075 0.188496
								CHANNELS 3 Xrotation Yrotation Zrotation
								JOINT Head
								{
									OFFSET 0.000000 7.643700 -2.377400
									CHANNELS 3 Xrotation Yrotation Zrotation
									JOINT HeadTop_End
									{
										OFFSET 0.000000 43.788605 -13.619600
										CHANNELS 3 Xrotation Yrotation Zrotation
										End Site
										{
											OFFSET 0 0 0
										}
									}
								}
							}
						}
						JOINT LeftShoulder_virtual
						{
							OFFSET 0.000000 0.000000 0.000000
							CHANNELS 3 Xrotation Yrotation Zrotation
							JOINT LeftShoulder
							{
								OFFSET 2.196100 4.412489 0.087492
								CHANNELS 3 Xrotation Yrotation Zrotation
								JOINT LeftShoulder_split
								{
									OFFSET 2.196100 4.412489 0.087492
									CHANNELS 3 Xrotation Yrotation Zrotation
									JOINT LeftArm
									{
										OFFSET 8.771219 -2.981674 -0.026999
										CHANNELS 3 Xrotation Yrotation Zrotation
										JOINT LeftForeArm
										{
											OFFSET 8.512804 0.000000 -0.000000
											CHANNELS 3 Xrotation Yrotation Zrotation
											JOINT LeftHand
											{
												OFFSET 18.484802 0.000000 -0.000000
												CHANNELS 3 Xrotation Yrotation Zrotation
												End Site
												{
													OFFSET 0 0 0
												}
											}
										}
									}
								}
							}
						}
						JOINT RightShoulder_virtual
						{
							OFFSET 0.000000 0.000000 0.000000
							CHANNELS 3 Xrotation Yrotation Zrotation
							JOINT RightShoulder
							{
								OFFSET -2.196100 4.412496 0.070690
								CHANNELS 3 Xrotation Yrotation Zrotation
								JOINT RightShoulder_split
								{
									OFFSET -2.196100 4.412496 0.070690
									CHANNELS 3 Xrotation Yrotation Zrotation
									JOINT RightArm
									{
										OFFSET -8.771282 -2.981682 -0.094208
										CHANNELS 3 Xrotation Yrotation Zrotation
										JOINT RightForeArm
										{
											OFFSET -8.494598 0.000000 0.000000
											CHANNELS 3 Xrotation Yrotation Zrotation
											JOINT RightHand
											{
												OFFSET -18.483803 0.000000 0.000001
												CHANNELS 3 Xrotation Yrotation Zrotation
												End Site
												{
													OFFSET 0 0 0
												}
											}
										}
									}
								}
							}
						}
					}
				}
			}
		}
	}
}
MOTION
Frames: 6
Frame Time: 0.03333333
-1.275843 25.223436 -0.078081 0.000000 0.000000 0.000000 10.755290 4.761424 -21.459546 -75.929464 11.911496 24.139991 107.843441 -7.582073 6.437182 25.612584 -2.315296 26.537915 -1.271260 -3.543767 -2.316117 0.000000 0.000000 0.000000 6.886958 5.500674 -20.848715 -7.785185 -10.084719 -14.910086 55.741908 14.786876 5.086568 4.884455 16.912640 -4.201543 -47.504345 0.907911 1.360444 0.000000 0.000000 0.000000 3.676605 8.762569 -19.195253 5.498311 5.898574 2.935695 2.240862 2.033173 1.554709 0.968855 1.978739 0.776215 0.000000 0.000000 0.000000 1.640828 1.022677 2.700891 -6.913619 2.943929 -2.703849 -15.002193 7.442324 3.215729 0.000000 0.000000 0.000000 2.128144 1.570074 1.353445 -0.978214 -5.504931 -4.955539 -1.588979 0.867753 -2.155511 62.074856 -16.628695 -42.383605 9.444704 -76.237916 9.844947 0.000000 0.000000 0.000000 3.580712 2.219965 2.182502 2.954667 -5.853902 8.048898 8.301524 4.654744 -6.470243 -15.952494 20.930985 55.967185 6.613645 76.835749 -6.377851 0.000000 0.000000 0.000000 
-1.393864 26.081392 5.761868 0.000000 0.000000 0.000000 7.510914 1.562109 -21.328254 -80.611033 10.334691 23.628565 87.790812 -5.613837 2.071257 27.428278 -0.862964 23.820302 0.546077 -3.357356 -1.892731 0.000000 0.000000 0.000000 6.599055 0.754662 -21.064052 0.274205 -11.871779 -14.986994 51.857405 14.846519 4.926701 10.068901 17.258461 3.447855 -48.249033 1.239965 0.873678 0.000000 0.000000 0.000000 4.692982 6.021456 -19.810117 3.549882 7.310939 3.141581 2.134848 2.526866 1.238706 0.788249 4.205669 0.066783 0.000000 0.000000 0.000000 1.653287 1.569549 2.501586 -6.190323 2.331897 -2.452605 -15.886764 8.103862 4.006442 0.000000 0.000000 0.000000 1.890801 2.221337 1.479702 -0.829015 -3.441328 -4.019297 -1.306200 2.573868 -2.017873 64.860433 -14.275704 -41.311600 8.040379 -79.172288 7.718617 0.000000 0.000000 0.000000 2.544593 2.604197 1.848724 2.150193 -4.360645 6.905169 7.545861 5.462069 -6.995283 -23.716025 26.141559 60.083890 34.308853 88.378755 -35.032727 0.000000 0.000000 0.000000 
-1.240494 27.096161 12.774799 0.000000 0.000000 0.000000 5.506443 -0.624623 -20.316626 -80.325087 6.939015 17.592966 62.720452 -1.439448 -0.907669 27.182088 1.717932 20.826708 2.451534 -3.176967 -2.069906 0.000000 0.000000 0.000000 7.324137 0.069624 -20.445106 11.679657 -11.384488 -13.873882 46.228981 14.113183 3.684354 13.515567 16.595290 10.662373 -45.466821 1.209582 1.814498 0.000000 0.000000 0.000000 5.651558 4.355738 -19.370212 1.937333 9.921265 2.989491 2.098544 3.614173 0.930529 0.763024 4.217050 -0.147155 0.000000 0.000000 0.000000 1.565478 2.648793 2.096963 -5.219112 1.370221 -1.473166 -16.139042 9.332142 4.313174 0.000000 0.000000 0.000000 1.544315 3.470772 1.446612 -0.857579 -0.753208 -3.218114 -1.095125 2.673168 -1.091371 67.068380 -12.208067 -42.478804 6.212691 -82.927089 5.177195 0.000000 0.000000 0.000000 1.872593 3.613986 1.344894 1.447434 -2.500652 5.841445 7.633711 3.946712 -6.449837 -29.569470 31.784231 63.898059 176.500025 79.612384 -178.091568 0.000000 0.000000 0.000000 
-0.732829 27.540054 20.011271 0.000000 0.000000 0.000000 4.376409 -0.448826 -18.747805 -76.098710 3.088634 8.210932 43.234961 3.334455 -1.281489 24.122983 5.282155 19.374842 4.192097 -3.021115 -2.713041 0.000000 0.000000 0.000000 8.887224 3.186569 -19.239251 21.138379 -9.271421 -12.714491 43.311596 11.950366 1.513198 13.596610 12.348636 12.831608 -38.372020 1.236895 3.421841 0.000000 0.000000 0.000000 5.152587 5.034509 -18.239877 1.527528 12.737219 2.239978 2.244083 4.745160 0.776092 1.124156 2.555279 0.330420 0.000000 0.000000 0.000000 1.328110 3.701446 1.689490 -4.246807 0.691878 -0.069553 -15.659298 11.082860 4.120243 0.000000 0.000000 0.000000 1.298555 4.690030 1.319900 -0.950721 1.585214 -2.924839 -0.086667 1.900602 -0.318502 66.475253 -11.463431 -45.306106 2.690972 -85.760210 1.403752 0.000000 0.000000 0.000000 1.693146 4.646040 0.809552 0.824957 -0.876113 5.379580 8.578142 1.715227 -4.672708 -29.005232 35.491289 65.122705 177.848195 71.551020 -179.974009 0.000000 0.000000 0.000000 
0.121630 27.223911 27.192450 0.000000 0.000000 0.000000 3.443704 2.722466 -16.610737 -70.313970 0.107172 -1.474277 34.595366 6.475977 -0.526268 17.238540 8.181989 19.399008 4.785299 -2.569981 -3.247627 0.000000 0.000000 0.000000 10.350711 8.515800 -17.953702 23.803149 -6.560855 -12.354200 49.010173 8.438031 -0.853024 11.517368 4.511098 9.303604 -28.021570 1.699610 4.850639 0.000000 0.000000 0.000000 3.631498 8.817229 -16.478535 2.466882 14.449467 0.915457 2.623784 5.393685 0.718090 0.469561 1.401846 0.734603 0.000000 0.000000 0.000000 1.007640 4.137354 1.387703 -3.438713 0.525859 1.149691 -14.529873 13.067308 3.585407 0.000000 0.000000 0.000000 1.230489 5.211310 1.078728 -1.020875 2.829639 -3.287833 1.634553 1.210588 -0.112691 61.673910 -12.284801 -48.523160 2.360159 -85.713984 1.393997 0.000000 0.000000 0.000000 1.917080 5.078324 0.398143 0.339615 0.152668 5.758638 9.627560 0.849594 -2.388028 -20.158344 35.662672 62.961736 177.414287 68.829572 -179.563064 0.000000 0.000000 0.000000 
1.337677 26.259916 34.284687 0.000000 0.000000 0.000000 2.033043 7.252338 -14.297062 -61.715732 -0.445961 -9.221058 37.269385 7.866820 -0.451835 5.374965 9.185590 21.798646 1.846906 -1.731183 -3.393874 0.000000 0.000000 0.000000 10.141482 15.628065 -17.128178 16.579056 -3.363573 -12.992280 65.769941 4.434899 -2.593418 9.122521 -4.299049 2.915602 -16.800281 2.426455 5.267298 0.000000 0.000000 0.000000 0.786902 14.591611 -13.783099 4.177451 14.033332 -0.864265 3.140927 5.059188 0.657281 -0.028858 0.645305 0.075755 0.000000 0.000000 0.000000 0.643697 3.627457 1.170370 -2.789759 1.033860 1.749781 -12.739248 15.625721 3.079901 0.000000 0.000000 0.000000 1.434534 4.657008 0.756761 -0.993067 2.843926 -4.073482 2.841923 -0.035874 -1.212485 51.796384 -14.117534 -51.310638 3.966189 -82.260435 4.027924 0.000000 0.000000 0.000000 2.348591 4.521570 0.198575 0.049942 0.072149 6.763101 9.310764 1.040978 -0.127259 -4.939592 31.285152 59.454877 176.175263 71.002999 -177.791217 0.000000 0.000000 0.000000 
